<?xml version="1.0" encoding="UTF-8" standalone="no"?>
<!-- Created with Inkscape (http://www.inkscape.org/) -->

<svg
   width="200"
   height="200"
   viewBox="0 0 52.916617 52.916616"
   version="1.1"
   id="svg1"
   xmlns:xlink="http://www.w3.org/1999/xlink"
   xmlns="http://www.w3.org/2000/svg"
   xmlns:svg="http://www.w3.org/2000/svg">
  <defs
     id="defs1">
    <linearGradient
       id="linearGradient32">
      <stop
         style="stop-color:#8839ef;stop-opacity:1;"
         offset="0"
         id="stop33" />
      <stop
         style="stop-color:#d20f39;stop-opacity:1;"
         offset="1"
         id="stop34" />
    </linearGradient>
    <linearGradient
       id="swatch16">
      <stop
         style="stop-color:#000000;stop-opacity:1;"
         offset="0"
         id="stop16" />
    </linearGradient>
    <linearGradient
       xlink:href="#linearGradient32"
       id="linearGradient34"
       x1="2.5480864"
       y1="3.7999163"
       x2="50.567608"
       y2="47.702454"
       gradientUnits="userSpaceOnUse" />
  </defs>
  <g
     id="layer1">
    <path
       id="text1"
       style="font-size:42.3333px;font-family:Arial;-inkscape-font-specification:Arial;letter-spacing:0px;fill:url(#linearGradient34);fill-opacity:1;stroke-width:0.246264"
       d="m 45.859563,-0.2449996 -38.9341594,0.005314 c -0.3165873,-5e-6 -0.5732333,0.24363163 -0.573228,0.54417109 l 0.00896,53.31813851 c 1.187e-4,0.300491 0.2566921,0.544058 0.573228,0.544171 l 38.9352794,0.0085 c 0.316637,1.19e-4 0.573354,-0.243584 0.573228,-0.544171 L 46.432791,0.29917149 c -1.2e-5,-0.30053261 -0.256648,-0.54415955 -0.573228,-0.54417109 z m -4.263341,5.0984154 c 0.316691,-2.409e-4 0.573482,0.243534 0.573228,0.5441711 L 42.15154,48.677256 c -1.68e-4,0.300471 -0.256712,0.544011 -0.573228,0.544171 l -30.031815,0.0043 c -0.534258,4.8e-5 -0.967372,-0.411112 -0.967322,-0.918289 L 10.575813,5.7833957 C 10.57568,5.2761007 11.008752,4.864743 11.543135,4.8645756 Z M 26.785738,8.6482652 c -0.292055,-0.010269 -0.76601,-0.010622 -1.058009,0.00106 -1.368585,0.054767 -2.636469,0.3239668 -3.804353,0.8077539 -0.26997,0.1118333 -0.698579,0.3159464 -0.953887,0.4580816 -1.056431,0.5881373 -1.906201,1.3693183 -2.549297,2.3440803 -0.160907,0.243893 -0.394157,0.657281 -0.523406,0.919352 -0.509635,1.033356 -0.797858,2.127562 -0.86488,3.282563 -0.01693,0.291719 -0.01677,0.765788 0,1.05752 0.0573,0.997026 0.278542,1.923366 0.663914,2.779311 0.119955,0.26643 0.347827,0.682833 0.509412,0.92626 0.523878,0.78922 1.22063,1.480477 2.090826,2.07359 0.241462,0.164576 0.64712,0.41051 0.906865,0.544171 0.921348,0.474112 2.287016,0.973613 4.097125,1.498596 0.280682,0.08141 0.737071,0.207144 1.018263,0.285371 1.690544,0.470304 2.915243,0.846477 3.673921,1.12873 0.273863,0.101886 0.708734,0.291761 0.968442,0.425665 0.650676,0.335484 1.171181,0.719883 1.561262,1.153706 0.195236,0.217129 0.462039,0.611999 0.592821,0.873119 0.227306,0.453839 0.368096,0.952893 0.422644,1.49647 0.02917,0.290669 0.0288,0.765925 -0.0017,1.056457 -0.05924,0.564653 -0.214916,1.102756 -0.466867,1.614445 -0.129043,0.262075 -0.380804,0.665394 -0.565391,0.891718 -0.381492,0.467753 -0.873457,0.866518 -1.475054,1.195689 -0.256314,0.140244 -0.689636,0.333541 -0.964523,0.432573 -0.752409,0.271066 -1.58222,0.428405 -2.48996,0.471898 -0.291887,0.01399 -0.76613,0.01367 -1.058008,-5.31e-4 -1.08981,-0.05302 -2.096226,-0.271576 -3.018964,-0.6563 -0.269695,-0.112446 -0.693753,-0.325133 -0.94549,-0.473493 -0.787172,-0.463917 -1.418549,-1.017787 -1.893779,-1.661741 -0.173466,-0.235052 -0.411965,-0.645919 -0.536282,-0.910317 -0.363416,-0.772913 -0.618954,-1.688179 -0.766916,-2.746364 -0.04047,-0.289418 -0.299249,-0.501775 -0.590022,-0.47243 l -2.224058,0.224258 c -0.290773,0.02935 -0.521876,0.290228 -0.503813,0.581902 0.100628,1.624899 0.487524,3.112138 1.16157,4.461246 0.130606,0.26141 0.365161,0.673517 0.523966,0.918821 0.79209,1.223527 1.804115,2.188568 3.036317,2.89516 0.25349,0.145361 0.677974,0.35638 0.94661,0.471367 1.395438,0.597304 3.052617,0.921185 4.971521,0.970899 0.292145,0.0076 0.766579,0.0076 1.058569,-0.0043 1.471079,-0.05973 2.819822,-0.370811 4.046183,-0.933699 0.265576,-0.121897 0.684727,-0.343666 0.934855,-0.49475 1.125193,-0.679645 2.032261,-1.550771 2.721713,-2.61404 0.158976,-0.245173 0.391245,-0.659177 0.520048,-0.921477 0.557583,-1.135495 0.87054,-2.325624 0.939332,-3.570592 0.01612,-0.291768 0.01586,-0.766204 0.0011,-1.058051 -0.0614,-1.215338 -0.337109,-2.316778 -0.827374,-3.304883 C 35.941156,26.805438 35.701953,26.395503 35.536421,26.154738 34.896629,25.22416 34.016868,24.425771 32.896438,23.760173 32.645202,23.610924 32.225044,23.390666 31.958225,23.2718 30.921062,22.809751 29.31092,22.290141 27.127212,21.712623 26.844675,21.637901 26.386139,21.518349 26.10447,21.440537 24.016727,20.863792 22.578683,20.299713 21.790705,19.747974 21.551697,19.580621 21.217166,19.240031 21.046741,19.002927 20.685212,18.49995 20.467202,17.915411 20.393462,17.249251 c -0.03214,-0.29033 -0.03199,-0.766221 0.0011,-1.056458 0.09833,-0.86181 0.442983,-1.627734 1.033378,-2.297847 0.193111,-0.219187 0.542424,-0.542049 0.78203,-0.70891 0.873378,-0.608218 2.093784,-0.942586 3.661046,-1.002784 0.292017,-0.01122 0.766121,-0.0111 1.058009,0.0021 1.517793,0.06878 2.728691,0.440426 3.633056,1.114913 0.234129,0.174616 0.579652,0.502055 0.769156,0.724322 0.730406,0.856684 1.196801,2.000507 1.400042,3.431891 0.04108,0.289321 0.297749,0.505166 0.588902,0.47987 l 2.276678,-0.198219 c 0.291154,-0.0253 0.520055,-0.282562 0.497656,-0.57393 C 35.988741,15.78805 35.651562,14.52833 35.082989,13.384786 34.952894,13.123131 34.718644,12.710515 34.557903,12.466497 33.872504,11.426003 32.975146,10.59656 31.865859,9.9778707 31.610663,9.8355385 31.184113,9.628062 30.915331,9.5134122 29.688499,8.990104 28.311961,8.7019303 26.785738,8.6482652 Z M 14.459097,43.036264 c -0.271481,1.37e-4 -0.491484,0.199473 -0.491498,0.445328 v 2.345143 c 1.4e-5,0.245855 0.220017,0.445191 0.491498,0.445328 h 24.039749 c 0.271481,-1.37e-4 0.491484,-0.199473 0.491498,-0.445328 v -2.345143 c -1.4e-5,-0.245855 -0.220017,-0.445191 -0.491498,-0.445328 z"
       transform="matrix(0.92313474,0,0,0.97242702,2.1376648,0.23824423)" />
  </g>
</svg>
